<?xml version="1.0" encoding="UTF-8" standalone="no"?>
<!DOCTYPE svg PUBLIC "-//W3C//DTD SVG 1.1//EN" "http://www.w3.org/Graphics/SVG/1.1/DTD/svg11.dtd">
<!-- Created with Vectornator (http://vectornator.io/) -->
<svg height="100%" stroke-miterlimit="10" style="fill-rule:nonzero;clip-rule:evenodd;stroke-linecap:round;stroke-linejoin:round;" version="1.1" viewBox="0 0 499.65 509.5" width="100%" xml:space="preserve" xmlns="http://www.w3.org/2000/svg" xmlns:vectornator="http://vectornator.io" xmlns:xlink="http://www.w3.org/1999/xlink">
<defs/>
<g id="Layer-1" vectornator:layerName="Layer 1">
<path d="M484.533 112.42L484.533 389.903C484.533 439.34 444.456 479.417 395.019 479.417L126.476 479.417C77.0381 479.417 36.9612 439.34 36.9612 389.903L36.9612 112.42C36.9612 62.9822 77.0381 22.9052 126.476 22.9052L395.019 22.9052C444.456 22.9052 484.533 62.9822 484.533 112.42Z" fill="#ffffff" fill-rule="nonzero" opacity="0.955" stroke="#ffffff" stroke-linecap="butt" stroke-linejoin="round" stroke-width="13.4214"/>
</g>
<g id="Untitled-o" vectornator:layerName="Untitled o">
<path d="M187.861 72.386C218.409 73.1143 232.642 88.3801 230.56 118.183C228.417 131.56 220.822 140.48 207.772 144.943C196.369 154.427 187.762 165.976 181.951 179.59C168.691 206.925 163.226 235.664 165.556 265.807C167.197 287.447 175.118 306.486 189.318 322.926C205.545 337.468 224.774 345.467 247.003 346.922C271.085 349.333 293.762 345.009 315.036 333.951C335.702 321.305 349.05 303.327 355.08 280.014C365.421 240.717 357.67 205.362 331.827 173.948C306.532 148.735 275.773 137.737 239.549 140.953C233.556 135.113 233.007 128.749 237.902 121.859C239.567 120.293 241.425 118.992 243.478 117.957C262.583 115.564 281.261 117.317 299.513 123.219C298.272 107.828 304.055 95.7701 316.863 87.0442C330.045 80.8533 343.079 81.2287 355.966 88.1703C368.431 95.7328 379.033 105.322 387.771 116.937C430.106 173.128 441.519 234.919 422.009 302.307C416.415 321.175 407.869 338.604 396.373 354.593C387.184 366.462 377.714 378.122 367.965 389.573C362.191 396.558 358.172 404.435 355.911 413.205C355.406 417.292 355.486 421.372 356.153 425.445C355.271 432.7 351.05 436.495 343.488 436.832C336.398 436.142 332.87 432.266 332.907 425.204C331.763 413.602 333.846 402.586 339.155 392.153C342.788 385.711 346.788 379.513 351.156 373.561C360.658 362.346 369.878 350.924 378.819 339.293C408.56 290.672 415.245 239.149 398.875 184.723C388.49 155.707 371.898 130.698 349.1 109.696C344.743 106.422 339.845 104.332 334.405 103.424C323.938 104.273 319.33 109.744 320.581 119.838C323.098 131.637 329.523 140.703 339.856 147.035C369.556 174.545 383.965 208.41 383.082 248.63C382.953 280.318 372.943 308.531 353.051 333.266C331.56 355.11 305.234 367.196 274.075 369.52C190.233 372.928 147.589 333.73 146.143 251.928C146.79 214.82 157.598 180.857 178.567 150.039C185.521 140.072 194.699 132.728 206.103 128.008C211.676 121.553 213.967 114.138 212.976 105.762C211.19 100.105 207.416 96.3458 201.654 94.4862C193.543 92.4978 185.664 93.1358 178.018 96.4004C170.976 100.047 164.655 104.66 159.054 110.241C132.674 137.128 115.369 168.864 107.142 205.449C101.709 235.92 104.351 265.703 115.07 294.799C118.349 302.588 122.207 310.067 126.645 317.236C139.498 334.144 151.617 351.548 163.004 369.446C171.372 383.157 176.015 397.964 176.934 413.865C176.754 418.368 176.093 422.8 174.951 427.162C171.318 432.809 166.259 434.316 159.774 431.684C155.802 429.244 153.625 425.742 153.241 421.178C155.268 411.774 154.256 402.644 150.205 393.79C145.454 384.032 140.14 374.618 134.261 365.548C125.001 353.174 116.03 340.602 107.346 327.834C83.2818 286.702 76.602 242.959 87.3071 196.604C97.5073 153.308 119.654 117.183 153.748 88.2293C163.737 80.0226 175.109 74.7414 187.861 72.386Z" fill="#000000" fill-rule="evenodd" opacity="0.96" stroke="none"/>
<path d="M216.168 189.304C220.299 189.26 223.356 190.972 225.34 194.438C227.914 201.918 229.187 209.611 229.159 217.515C228.721 226.958 227.517 236.304 225.547 245.553C223.392 249.384 220.052 251.268 215.525 251.208C208.372 250.989 204.472 247.47 203.826 240.648C205.869 226.178 207.618 211.679 209.075 197.149C209.792 193.025 212.156 190.41 216.168 189.304Z" fill="#000000" fill-rule="evenodd" opacity="0.951" stroke="none"/>
<path d="M302.484 192.36C304.713 192.265 306.925 192.408 309.122 192.789C309.731 193.395 310.34 194.002 310.948 194.608C314.471 208.586 315.8 222.758 314.935 237.123C314.695 242.298 313.047 246.96 309.992 251.11C302.299 254.79 296.538 252.931 292.707 245.531C291.733 228.947 293.624 212.649 298.381 196.637C299.403 194.831 300.771 193.406 302.484 192.36Z" fill="#000000" fill-rule="evenodd" opacity="0.948" stroke="none"/>
<path d="M213.832 272.068C216.514 271.851 218.967 272.477 221.193 273.944C229.574 284.047 240.079 291.115 252.707 295.149C263.001 297.659 272.368 295.836 280.809 289.681C284.293 285.878 287.776 282.075 291.26 278.272C299.304 273.761 305.56 275.386 310.029 283.146C311.054 289.325 309.521 294.829 305.429 299.656C284.184 320.951 259.914 324.659 232.618 310.778C222.634 305.198 215.212 297.322 210.354 287.15C207.109 281.016 208.268 275.988 213.832 272.068Z" fill="#000000" fill-rule="evenodd" opacity="0.955" stroke="none"/>
</g>
</svg>
