<?xml version="1.0" encoding="UTF-8"?>
<!DOCTYPE svg PUBLIC "-//W3C//DTD SVG 1.1//EN" "http://www.w3.org/Graphics/SVG/1.1/DTD/svg11.dtd">
<svg xmlns="http://www.w3.org/2000/svg" version="1.1" width="512px" height="512px"
    style="shape-rendering:geometricPrecision; text-rendering:geometricPrecision; image-rendering:optimizeQuality; fill-rule:evenodd; clip-rule:evenodd"
    xmlns:xlink="http://www.w3.org/1999/xlink">
    <g>
        <path style="opacity:0.96" fill="#ffffff"
            d="M 167.5,5.5 C 208.902,6.07086 228.402,27.0709 226,68.5C 223.285,87.1126 213.119,99.6126 195.5,106C 180.182,119.339 168.682,135.505 161,154.5C 143.418,192.662 136.418,232.662 140,274.5C 142.528,304.535 153.528,330.868 173,353.5C 195.192,373.466 221.359,384.299 251.5,386C 284.164,389.001 314.83,382.668 343.5,367C 371.324,349.136 389.157,323.97 397,291.5C 410.458,236.764 399.458,187.764 364,144.5C 329.371,109.843 287.538,95.0096 238.5,100C 230.298,91.9743 229.465,83.1409 236,73.5C 238.234,71.3002 240.734,69.4669 243.5,68C 269.353,64.3991 294.686,66.5658 319.5,74.5C 317.602,53.1391 325.269,36.3058 342.5,24C 360.274,15.2101 377.941,15.5434 395.5,25C 412.496,35.325 426.996,48.4916 439,64.5C 497.154,141.944 513.487,227.611 488,321.5C 480.686,347.791 469.352,372.124 454,394.5C 441.716,411.119 429.049,427.453 416,443.5C 408.275,453.286 402.941,464.286 400,476.5C 399.373,482.185 399.54,487.851 400.5,493.5C 399.408,503.59 393.741,508.923 383.5,509.5C 373.883,508.644 369.049,503.31 369,493.5C 367.286,477.401 369.953,462.068 377,447.5C 381.832,438.499 387.165,429.832 393,421.5C 405.716,405.785 418.049,389.785 430,373.5C 469.613,305.533 477.946,233.866 455,158.5C 440.519,118.344 417.686,83.8442 386.5,55C 380.55,50.5156 373.884,47.6823 366.5,46.5C 352.329,47.83 346.162,55.4966 348,69.5C 351.576,85.8535 360.409,98.3535 374.5,107C 415.13,144.786 435.13,191.619 434.5,247.5C 434.771,291.52 421.605,330.854 395,365.5C 366.187,396.154 330.687,413.321 288.5,417C 174.944,422.943 116.611,369.109 113.5,255.5C 113.854,203.945 128.021,156.612 156,113.5C 165.281,99.5551 177.614,89.2218 193,82.5C 200.46,73.4537 203.46,63.1204 202,51.5C 199.5,43.6667 194.333,38.5 186.5,36C 175.481,33.355 164.814,34.355 154.5,39C 145.01,44.1665 136.51,50.6665 129,58.5C 93.6331,96.2283 70.6331,140.562 60,191.5C 53.0671,233.905 57.0671,275.239 72,315.5C 76.5525,326.272 81.8858,336.606 88,346.5C 105.653,369.802 122.319,393.802 138,418.5C 149.531,437.425 156.031,457.925 157.5,480C 157.32,486.258 156.487,492.424 155,498.5C 150.158,506.396 143.324,508.563 134.5,505C 129.084,501.668 126.084,496.835 125.5,490.5C 128.114,477.408 126.614,464.741 121,452.5C 114.426,439.014 107.093,426.014 99,413.5C 86.2784,396.445 73.9451,379.111 62,361.5C 28.814,304.712 19.1473,244.045 33,179.5C 46.2115,119.211 75.7115,68.7109 121.5,28C 134.92,16.456 150.254,8.95596 167.5,5.5 Z" />
    </g>
    <g>
        <path style="opacity:0.951" fill="#ffffff"
            d="M 207.5,167.5 C 213.097,167.38 217.264,169.713 220,174.5C 223.594,184.853 225.427,195.52 225.5,206.5C 225.039,219.623 223.539,232.623 221,245.5C 218.135,250.852 213.635,253.518 207.5,253.5C 197.805,253.299 192.472,248.466 191.5,239C 194.064,218.87 196.231,198.704 198,178.5C 198.913,172.761 202.08,169.094 207.5,167.5 Z" />
    </g>
    <g>
        <path style="opacity:0.948" fill="#ffffff"
            d="M 324.5,170.5 C 327.518,170.335 330.518,170.502 333.5,171C 334.333,171.833 335.167,172.667 336,173.5C 340.97,192.866 342.97,212.533 342,232.5C 341.748,239.691 339.581,246.191 335.5,252C 325.128,257.223 317.295,254.723 312,244.5C 310.447,221.477 312.78,198.811 319,176.5C 320.36,173.977 322.193,171.977 324.5,170.5 Z" />
    </g>
    <g>
        <path style="opacity:0.955" fill="#ffffff"
            d="M 205.5,282.5 C 209.131,282.16 212.464,282.994 215.5,285C 226.999,298.913 241.332,308.579 258.5,314C 272.483,317.338 285.15,314.671 296.5,306C 301.167,300.667 305.833,295.333 310.5,290C 321.336,283.618 329.836,285.785 336,296.5C 337.477,305.069 335.477,312.736 330,319.5C 301.514,349.388 268.681,354.888 231.5,336C 217.893,328.393 207.726,317.56 201,303.5C 196.516,295.026 198.016,288.026 205.5,282.5 Z" />
    </g>
</svg>